<svg width="512" height="512" xmlns="http://www.w3.org/2000/svg">
 <!-- Created with UXWing SVG Editor - https://uxwing.com/svg-icon-editor/ -->

 <g>
  <title>background</title>
  <rect fill="none" id="canvas_background" height="514" width="514" y="-1" x="-1"/>
  <g display="none" overflow="visible" y="0" x="0" height="100%" width="100%" id="canvasGrid">
   <rect fill="url(#gridpattern)" stroke-width="0" y="0" x="0" height="100%" width="100%"/>
  </g>
 </g>
 <g>
  <title>Layer 1</title>
  <g stroke="null" id="svg_64">
   <g stroke="null" transform="matrix(1.5989160979642347,0,0,1.5989160979642347,-3429.4025161410723,-3429.4025161410723) " id="svg_39">
    <path stroke="null" id="svg_40" fill="#ffffff" d="m2304.625302,2150.399878c-84.693,0 -153.6,68.907 -153.6,153.6s68.907,153.6 153.6,153.6s153.6,-68.907 153.6,-153.6s-68.907,-153.6 -153.6,-153.6zm0,12.8c77.643,0 140.8,63.157 140.8,140.8c-0.011,8.588 -0.807,17.157 -2.379,25.6l-97.632,0c-2.281,0.006 -4.385,1.226 -5.525,3.2c-8.224,14.016 -21.397,22.4 -35.264,22.4c-13.867,0 -27.04,-8.384 -35.275,-22.4c-1.14,-1.974 -3.245,-3.194 -5.525,-3.2l-97.621,0c-1.571,-8.443 -2.368,-17.012 -2.379,-25.6c0,-77.643 63.157,-140.8 140.8,-140.8zm0,281.6c-64.32,0 -118.677,-43.371 -135.467,-102.4l91.093,0c10.667,16.096 27.008,25.6 44.341,25.6s33.685,-9.504 44.341,-25.6l91.157,0c-16.788,59.029 -71.145,102.4 -135.465,102.4z"/>
    <path stroke="null" id="svg_41" fill="#ffffff" d="m2304.625302,2329.599878c14.062,0.08 25.526,-11.253 25.606,-25.315c0.035,-6.223 -2.209,-12.244 -6.31,-16.925l36.437,-36.437c2.41,-2.586 2.267,-6.636 -0.319,-9.045c-2.458,-2.29 -6.268,-2.29 -8.726,0l-38.155,38.101c-2.733,-1.013 -5.619,-1.548 -8.533,-1.579c-14.139,0 -25.6,11.461 -25.6,25.6c0,14.139 11.461,25.6 25.6,25.6zm0,-38.4c7.069,0 12.8,5.731 12.8,12.8c0,7.069 -5.731,12.8 -12.8,12.8c-7.069,0 -12.8,-5.731 -12.8,-12.8c0,-7.069 5.731,-12.8 12.8,-12.8z"/>
    <path stroke="null" id="svg_42" fill="#ffffff" d="m2304.625302,2207.999878c3.535,0 6.4,-2.865 6.4,-6.4l0,-25.6c0,-3.535 -2.865,-6.4 -6.4,-6.4c-3.535,0 -6.4,2.865 -6.4,6.4l0,25.6c0,3.535 2.865,6.4 6.4,6.4z"/>
    <path stroke="null" id="svg_43" fill="#ffffff" d="m2400.625302,2303.999878c0,3.535 2.865,6.4 6.4,6.4l25.6,0c3.535,0 6.4,-2.865 6.4,-6.4c0,-3.535 -2.865,-6.4 -6.4,-6.4l-25.6,0c-3.535,0 -6.4,2.865 -6.4,6.4z"/>
    <path stroke="null" id="svg_44" fill="#ffffff" d="m2176.625302,2310.399878l25.6,0c3.535,0 6.4,-2.865 6.4,-6.4c0,-3.535 -2.865,-6.4 -6.4,-6.4l-25.6,0c-3.535,0 -6.4,2.865 -6.4,6.4c0,3.535 2.865,6.4 6.4,6.4z"/>
    <path stroke="null" id="svg_45" fill="#ffffff" d="m2247.292302,2217.492878c1.823,3.028 5.756,4.005 8.784,2.181c2.95,-1.776 3.966,-5.569 2.299,-8.581l-10.901,-18.891c-1.823,-3.028 -5.756,-4.005 -8.784,-2.181c-2.95,1.776 -3.966,5.569 -2.299,8.581l10.901,18.891z"/>
    <path stroke="null" id="svg_46" fill="#ffffff" d="m2394.342302,2258.602878c1.123,0.001 2.227,-0.293 3.2,-0.853l18.891,-10.901c3.028,-1.823 4.005,-5.756 2.182,-8.784c-1.776,-2.95 -5.569,-3.966 -8.582,-2.299l-18.901,10.901c-3.063,1.763 -4.117,5.676 -2.354,8.739c1.143,1.986 3.262,3.21 5.554,3.207l0.01,-0.01z"/>
    <path stroke="null" id="svg_47" fill="#ffffff" d="m2192.828302,2246.847878l18.891,10.901c3.092,1.712 6.987,0.592 8.699,-2.501c1.667,-3.013 0.652,-6.805 -2.299,-8.581l-18.891,-10.933c-3.092,-1.712 -6.987,-0.592 -8.699,2.501c-1.667,3.013 -0.652,6.805 2.299,8.581l0,0.032z"/>
    <path stroke="null" id="svg_48" fill="#ffffff" d="m2353.222302,2219.839878c3.06,1.769 6.975,0.72 8.743,-2.34c0.001,-0.002 0.002,-0.004 0.003,-0.006l10.923,-18.891c1.712,-3.092 0.592,-6.987 -2.5,-8.699c-3.013,-1.668 -6.806,-0.652 -8.582,2.299l-10.933,18.891c-1.769,3.06 -0.72,6.975 2.34,8.743c0.002,0.001 0.004,0.002 0.006,0.003z"/>
   </g>
   <g stroke="null" transform="matrix(1.1423610842685072,0,0,1.1423610842685072,-2404.999832067196,-2404.999832067196) " id="svg_49"/>
   <g stroke="null" transform="matrix(1.1423610842685072,0,0,1.1423610842685072,-2404.999832067196,-2404.999832067196) " id="svg_50"/>
   <g stroke="null" transform="matrix(1.1423610842685072,0,0,1.1423610842685072,-2404.999832067196,-2404.999832067196) " id="svg_51"/>
   <g stroke="null" transform="matrix(1.1423610842685072,0,0,1.1423610842685072,-2404.999832067196,-2404.999832067196) " id="svg_52"/>
   <g stroke="null" transform="matrix(1.1423610842685072,0,0,1.1423610842685072,-2404.999832067196,-2404.999832067196) " id="svg_53"/>
   <g stroke="null" transform="matrix(1.1423610842685072,0,0,1.1423610842685072,-2404.999832067196,-2404.999832067196) " id="svg_54"/>
   <g stroke="null" transform="matrix(1.1423610842685072,0,0,1.1423610842685072,-2404.999832067196,-2404.999832067196) " id="svg_55"/>
   <g stroke="null" transform="matrix(1.1423610842685072,0,0,1.1423610842685072,-2404.999832067196,-2404.999832067196) " id="svg_56"/>
   <g stroke="null" transform="matrix(1.1423610842685072,0,0,1.1423610842685072,-2404.999832067196,-2404.999832067196) " id="svg_57"/>
   <g stroke="null" transform="matrix(1.1423610842685072,0,0,1.1423610842685072,-2404.999832067196,-2404.999832067196) " id="svg_58"/>
   <g stroke="null" transform="matrix(1.1423610842685072,0,0,1.1423610842685072,-2404.999832067196,-2404.999832067196) " id="svg_59"/>
   <g stroke="null" transform="matrix(1.1423610842685072,0,0,1.1423610842685072,-2404.999832067196,-2404.999832067196) " id="svg_60"/>
   <g stroke="null" transform="matrix(1.1423610842685072,0,0,1.1423610842685072,-2404.999832067196,-2404.999832067196) " id="svg_61"/>
   <g stroke="null" transform="matrix(1.1423610842685072,0,0,1.1423610842685072,-2404.999832067196,-2404.999832067196) " id="svg_62"/>
   <g stroke="null" transform="matrix(1.1423610842685072,0,0,1.1423610842685072,-2404.999832067196,-2404.999832067196) " id="svg_63"/>
  </g>
 </g>
</svg>